<svg width="350" height="300" viewBox="0 0 350 300" fill="none" xmlns="http://www.w3.org/2000/svg">
<rect width="350" height="300" rx="20" fill="url(#paint0_linear)"/>
<path d="M0 113C0 107.477 4.47715 103 10 103H350V280C350 291.046 341.046 300 330 300H20C8.9543 300 0 291.046 0 280V113Z" fill="#6371F2" fill-opacity="0.06"/>
<path d="M0 113C0 107.477 4.47715 103 10 103H350V280C350 291.046 341.046 300 330 300H20C8.9543 300 0 291.046 0 280V113Z" fill="#815AA2" fill-opacity="0.14"/>
<g filter="url(#filter0_d)">
<path d="M326 102.5L261 140L261 65L326 102.5Z" fill="white"/>
</g>
<defs>
<filter id="filter0_d" x="252" y="56" width="85" height="95" filterUnits="userSpaceOnUse" color-interpolation-filters="sRGB">
<feFlood flood-opacity="0" result="BackgroundImageFix"/>
<feColorMatrix in="SourceAlpha" type="matrix" values="0 0 0 0 0 0 0 0 0 0 0 0 0 0 0 0 0 0 127 0"/>
<feOffset dx="1" dy="1"/>
<feGaussianBlur stdDeviation="5"/>
<feColorMatrix type="matrix" values="0 0 0 0 0 0 0 0 0 0 0 0 0 0 0 0 0 0 0.25 0"/>
<feBlend mode="normal" in2="BackgroundImageFix" result="effect1_dropShadow"/>
<feBlend mode="normal" in="SourceGraphic" in2="effect1_dropShadow" result="shape"/>
</filter>
<linearGradient id="paint0_linear" x1="41.5" y1="16" x2="301" y2="276" gradientUnits="userSpaceOnUse">
<stop offset="0.0492487" stop-color="#7CC9F4"/>
<stop offset="0.984673" stop-color="#9563AC"/>
</linearGradient>
</defs>
</svg>
